<mxfile host="app.diagrams.net" modified="2024-11-02T20:59:03.312Z" agent="Mozilla/5.0 (Windows NT 10.0; Win64; x64) AppleWebKit/537.36 (KHTML, like Gecko) Chrome/130.0.0.0 Safari/537.36 Edg/130.0.0.0" etag="pSY0TtxERKAyY6Zd3n5k" version="24.6.4" type="device">
  <diagram name="Page-1" id="-e9cehNBupKBAICEsY82">
    <mxGraphModel dx="983" dy="522" grid="1" gridSize="10" guides="1" tooltips="1" connect="1" arrows="1" fold="1" page="1" pageScale="1" pageWidth="850" pageHeight="1100" math="0" shadow="0">
      <root>
        <mxCell id="0" />
        <mxCell id="1" parent="0" />
        <mxCell id="Vui1hRb9voWoBhlo4_W3-10" value="" style="rounded=0;whiteSpace=wrap;html=1;" vertex="1" parent="1">
          <mxGeometry x="190" y="40" width="500" height="370" as="geometry" />
        </mxCell>
        <mxCell id="Vui1hRb9voWoBhlo4_W3-12" value="Reservation Agent" style="text;html=1;align=center;verticalAlign=middle;whiteSpace=wrap;rounded=0;" vertex="1" parent="1">
          <mxGeometry x="355" y="40" width="120" height="30" as="geometry" />
        </mxCell>
        <mxCell id="Vui1hRb9voWoBhlo4_W3-13" value="Customer" style="shape=umlActor;verticalLabelPosition=bottom;verticalAlign=top;html=1;outlineConnect=0;" vertex="1" parent="1">
          <mxGeometry x="70" y="195" width="30" height="60" as="geometry" />
        </mxCell>
        <mxCell id="Vui1hRb9voWoBhlo4_W3-16" value="Book reservation" style="ellipse;whiteSpace=wrap;html=1;" vertex="1" parent="1">
          <mxGeometry x="260" y="80" width="140" height="50" as="geometry" />
        </mxCell>
        <mxCell id="Vui1hRb9voWoBhlo4_W3-17" value="Cancel reservation" style="ellipse;whiteSpace=wrap;html=1;" vertex="1" parent="1">
          <mxGeometry x="260" y="320" width="140" height="50" as="geometry" />
        </mxCell>
        <mxCell id="Vui1hRb9voWoBhlo4_W3-18" value="Check availability in data storage" style="ellipse;whiteSpace=wrap;html=1;" vertex="1" parent="1">
          <mxGeometry x="260" y="200" width="210" height="50" as="geometry" />
        </mxCell>
        <mxCell id="Vui1hRb9voWoBhlo4_W3-19" value="Update data storage" style="ellipse;whiteSpace=wrap;html=1;" vertex="1" parent="1">
          <mxGeometry x="510" y="120" width="140" height="50" as="geometry" />
        </mxCell>
        <mxCell id="Vui1hRb9voWoBhlo4_W3-22" value="" style="endArrow=none;dashed=1;html=1;rounded=0;startArrow=open;startFill=0;exitX=0.885;exitY=0.231;exitDx=0;exitDy=0;exitPerimeter=0;" edge="1" parent="1" source="Vui1hRb9voWoBhlo4_W3-18">
          <mxGeometry width="50" height="50" relative="1" as="geometry">
            <mxPoint x="470" y="210" as="sourcePoint" />
            <mxPoint x="520" y="160" as="targetPoint" />
          </mxGeometry>
        </mxCell>
        <mxCell id="Vui1hRb9voWoBhlo4_W3-23" value="" style="endArrow=none;dashed=1;html=1;rounded=0;startArrow=open;startFill=0;exitX=0.5;exitY=0;exitDx=0;exitDy=0;entryX=0.5;entryY=1;entryDx=0;entryDy=0;" edge="1" parent="1" source="Vui1hRb9voWoBhlo4_W3-18" target="Vui1hRb9voWoBhlo4_W3-16">
          <mxGeometry width="50" height="50" relative="1" as="geometry">
            <mxPoint x="456" y="222" as="sourcePoint" />
            <mxPoint x="530" y="170" as="targetPoint" />
          </mxGeometry>
        </mxCell>
        <mxCell id="Vui1hRb9voWoBhlo4_W3-24" value="" style="endArrow=none;dashed=1;html=1;rounded=0;startArrow=open;startFill=0;exitX=0.5;exitY=1;exitDx=0;exitDy=0;entryX=0.544;entryY=0.026;entryDx=0;entryDy=0;entryPerimeter=0;" edge="1" parent="1" source="Vui1hRb9voWoBhlo4_W3-18" target="Vui1hRb9voWoBhlo4_W3-17">
          <mxGeometry width="50" height="50" relative="1" as="geometry">
            <mxPoint x="466" y="232" as="sourcePoint" />
            <mxPoint x="540" y="180" as="targetPoint" />
          </mxGeometry>
        </mxCell>
        <mxCell id="Vui1hRb9voWoBhlo4_W3-25" value="" style="endArrow=none;html=1;rounded=0;" edge="1" parent="1" target="Vui1hRb9voWoBhlo4_W3-16">
          <mxGeometry width="50" height="50" relative="1" as="geometry">
            <mxPoint x="120" y="210" as="sourcePoint" />
            <mxPoint x="190" y="170" as="targetPoint" />
          </mxGeometry>
        </mxCell>
        <mxCell id="Vui1hRb9voWoBhlo4_W3-26" value="" style="endArrow=none;html=1;rounded=0;entryX=0;entryY=0;entryDx=0;entryDy=0;" edge="1" parent="1" target="Vui1hRb9voWoBhlo4_W3-17">
          <mxGeometry width="50" height="50" relative="1" as="geometry">
            <mxPoint x="120" y="240" as="sourcePoint" />
            <mxPoint x="299" y="135" as="targetPoint" />
          </mxGeometry>
        </mxCell>
        <mxCell id="Vui1hRb9voWoBhlo4_W3-27" value="&lt;font style=&quot;font-size: 10px;&quot;&gt;&amp;lt;&amp;lt;extend&amp;gt;&amp;gt;&lt;/font&gt;" style="text;html=1;align=center;verticalAlign=middle;whiteSpace=wrap;rounded=0;" vertex="1" parent="1">
          <mxGeometry x="490" y="170" width="60" height="30" as="geometry" />
        </mxCell>
        <mxCell id="Vui1hRb9voWoBhlo4_W3-28" value="&lt;font style=&quot;font-size: 10px;&quot;&gt;&amp;lt;&amp;lt;include&amp;gt;&amp;gt;&lt;/font&gt;" style="text;html=1;align=center;verticalAlign=middle;whiteSpace=wrap;rounded=0;" vertex="1" parent="1">
          <mxGeometry x="340" y="130" width="60" height="30" as="geometry" />
        </mxCell>
        <mxCell id="Vui1hRb9voWoBhlo4_W3-29" value="&lt;font style=&quot;font-size: 10px;&quot;&gt;&amp;lt;&amp;lt;include&amp;gt;&amp;gt;&lt;/font&gt;" style="text;html=1;align=center;verticalAlign=middle;whiteSpace=wrap;rounded=0;" vertex="1" parent="1">
          <mxGeometry x="355" y="270" width="60" height="30" as="geometry" />
        </mxCell>
        <mxCell id="Vui1hRb9voWoBhlo4_W3-30" value="" style="rounded=0;whiteSpace=wrap;html=1;" vertex="1" parent="1">
          <mxGeometry x="190" y="540" width="500" height="240" as="geometry" />
        </mxCell>
        <mxCell id="Vui1hRb9voWoBhlo4_W3-31" value="Vehicle Management Agent" style="text;html=1;align=center;verticalAlign=middle;whiteSpace=wrap;rounded=0;" vertex="1" parent="1">
          <mxGeometry x="352.5" y="540" width="175" height="30" as="geometry" />
        </mxCell>
        <mxCell id="Vui1hRb9voWoBhlo4_W3-32" value="Admin" style="shape=umlActor;verticalLabelPosition=bottom;verticalAlign=top;html=1;outlineConnect=0;" vertex="1" parent="1">
          <mxGeometry x="50" y="630" width="30" height="60" as="geometry" />
        </mxCell>
        <mxCell id="Vui1hRb9voWoBhlo4_W3-33" value="Update vehicle status" style="ellipse;whiteSpace=wrap;html=1;" vertex="1" parent="1">
          <mxGeometry x="260" y="580" width="140" height="50" as="geometry" />
        </mxCell>
        <mxCell id="Vui1hRb9voWoBhlo4_W3-35" value="Check status in data storage" style="ellipse;whiteSpace=wrap;html=1;" vertex="1" parent="1">
          <mxGeometry x="260" y="700" width="210" height="50" as="geometry" />
        </mxCell>
        <mxCell id="Vui1hRb9voWoBhlo4_W3-36" value="Update data storage" style="ellipse;whiteSpace=wrap;html=1;" vertex="1" parent="1">
          <mxGeometry x="510" y="620" width="140" height="50" as="geometry" />
        </mxCell>
        <mxCell id="Vui1hRb9voWoBhlo4_W3-37" value="" style="endArrow=none;dashed=1;html=1;rounded=0;startArrow=open;startFill=0;exitX=0.885;exitY=0.231;exitDx=0;exitDy=0;exitPerimeter=0;" edge="1" parent="1" source="Vui1hRb9voWoBhlo4_W3-35">
          <mxGeometry width="50" height="50" relative="1" as="geometry">
            <mxPoint x="470" y="710" as="sourcePoint" />
            <mxPoint x="520" y="660" as="targetPoint" />
          </mxGeometry>
        </mxCell>
        <mxCell id="Vui1hRb9voWoBhlo4_W3-38" value="" style="endArrow=none;dashed=1;html=1;rounded=0;startArrow=open;startFill=0;exitX=0.5;exitY=0;exitDx=0;exitDy=0;entryX=0.5;entryY=1;entryDx=0;entryDy=0;" edge="1" parent="1" source="Vui1hRb9voWoBhlo4_W3-35" target="Vui1hRb9voWoBhlo4_W3-33">
          <mxGeometry width="50" height="50" relative="1" as="geometry">
            <mxPoint x="456" y="722" as="sourcePoint" />
            <mxPoint x="530" y="670" as="targetPoint" />
          </mxGeometry>
        </mxCell>
        <mxCell id="Vui1hRb9voWoBhlo4_W3-40" value="" style="endArrow=none;html=1;rounded=0;" edge="1" parent="1" target="Vui1hRb9voWoBhlo4_W3-33">
          <mxGeometry width="50" height="50" relative="1" as="geometry">
            <mxPoint x="100" y="670" as="sourcePoint" />
            <mxPoint x="190" y="670" as="targetPoint" />
          </mxGeometry>
        </mxCell>
        <mxCell id="Vui1hRb9voWoBhlo4_W3-42" value="&lt;font style=&quot;font-size: 10px;&quot;&gt;&amp;lt;&amp;lt;extend&amp;gt;&amp;gt;&lt;/font&gt;" style="text;html=1;align=center;verticalAlign=middle;whiteSpace=wrap;rounded=0;" vertex="1" parent="1">
          <mxGeometry x="490" y="670" width="60" height="30" as="geometry" />
        </mxCell>
        <mxCell id="Vui1hRb9voWoBhlo4_W3-43" value="&lt;font style=&quot;font-size: 10px;&quot;&gt;&amp;lt;&amp;lt;include&amp;gt;&amp;gt;&lt;/font&gt;" style="text;html=1;align=center;verticalAlign=middle;whiteSpace=wrap;rounded=0;" vertex="1" parent="1">
          <mxGeometry x="340" y="630" width="60" height="30" as="geometry" />
        </mxCell>
        <mxCell id="Vui1hRb9voWoBhlo4_W3-48" value="" style="rounded=0;whiteSpace=wrap;html=1;" vertex="1" parent="1">
          <mxGeometry x="190" y="910" width="500" height="500" as="geometry" />
        </mxCell>
        <mxCell id="Vui1hRb9voWoBhlo4_W3-49" value="Payment Agent" style="text;html=1;align=center;verticalAlign=middle;whiteSpace=wrap;rounded=0;" vertex="1" parent="1">
          <mxGeometry x="352.5" y="910" width="175" height="30" as="geometry" />
        </mxCell>
        <mxCell id="Vui1hRb9voWoBhlo4_W3-50" value="Customer" style="shape=umlActor;verticalLabelPosition=bottom;verticalAlign=top;html=1;outlineConnect=0;" vertex="1" parent="1">
          <mxGeometry x="40" y="1130" width="30" height="60" as="geometry" />
        </mxCell>
        <mxCell id="Vui1hRb9voWoBhlo4_W3-51" value="Pay rent" style="ellipse;whiteSpace=wrap;html=1;" vertex="1" parent="1">
          <mxGeometry x="260" y="950" width="140" height="50" as="geometry" />
        </mxCell>
        <mxCell id="Vui1hRb9voWoBhlo4_W3-52" value="Process payment via gateway" style="ellipse;whiteSpace=wrap;html=1;" vertex="1" parent="1">
          <mxGeometry x="260" y="1070" width="210" height="50" as="geometry" />
        </mxCell>
        <mxCell id="Vui1hRb9voWoBhlo4_W3-53" value="Update data storage" style="ellipse;whiteSpace=wrap;html=1;" vertex="1" parent="1">
          <mxGeometry x="527.5" y="1135" width="140" height="50" as="geometry" />
        </mxCell>
        <mxCell id="Vui1hRb9voWoBhlo4_W3-54" value="" style="endArrow=none;dashed=1;html=1;rounded=0;startArrow=open;startFill=0;exitX=0.827;exitY=0.88;exitDx=0;exitDy=0;exitPerimeter=0;entryX=0;entryY=0.5;entryDx=0;entryDy=0;" edge="1" parent="1" source="Vui1hRb9voWoBhlo4_W3-52" target="Vui1hRb9voWoBhlo4_W3-53">
          <mxGeometry width="50" height="50" relative="1" as="geometry">
            <mxPoint x="470" y="1080" as="sourcePoint" />
            <mxPoint x="520" y="1030" as="targetPoint" />
          </mxGeometry>
        </mxCell>
        <mxCell id="Vui1hRb9voWoBhlo4_W3-55" value="" style="endArrow=none;dashed=1;html=1;rounded=0;startArrow=open;startFill=0;exitX=0.5;exitY=0;exitDx=0;exitDy=0;entryX=0.5;entryY=1;entryDx=0;entryDy=0;" edge="1" parent="1" source="Vui1hRb9voWoBhlo4_W3-52" target="Vui1hRb9voWoBhlo4_W3-51">
          <mxGeometry width="50" height="50" relative="1" as="geometry">
            <mxPoint x="456" y="1092" as="sourcePoint" />
            <mxPoint x="530" y="1040" as="targetPoint" />
          </mxGeometry>
        </mxCell>
        <mxCell id="Vui1hRb9voWoBhlo4_W3-56" value="" style="endArrow=none;html=1;rounded=0;" edge="1" parent="1" target="Vui1hRb9voWoBhlo4_W3-51">
          <mxGeometry width="50" height="50" relative="1" as="geometry">
            <mxPoint x="100" y="1150" as="sourcePoint" />
            <mxPoint x="190" y="1040" as="targetPoint" />
          </mxGeometry>
        </mxCell>
        <mxCell id="Vui1hRb9voWoBhlo4_W3-57" value="&lt;font style=&quot;font-size: 10px;&quot;&gt;&amp;lt;&amp;lt;extend&amp;gt;&amp;gt;&lt;/font&gt;" style="text;html=1;align=center;verticalAlign=middle;whiteSpace=wrap;rounded=0;" vertex="1" parent="1">
          <mxGeometry x="470" y="1100" width="60" height="30" as="geometry" />
        </mxCell>
        <mxCell id="Vui1hRb9voWoBhlo4_W3-58" value="&lt;font style=&quot;font-size: 10px;&quot;&gt;&amp;lt;&amp;lt;include&amp;gt;&amp;gt;&lt;/font&gt;" style="text;html=1;align=center;verticalAlign=middle;whiteSpace=wrap;rounded=0;" vertex="1" parent="1">
          <mxGeometry x="340" y="1000" width="60" height="30" as="geometry" />
        </mxCell>
        <mxCell id="Vui1hRb9voWoBhlo4_W3-59" value="Initiate refund" style="ellipse;whiteSpace=wrap;html=1;" vertex="1" parent="1">
          <mxGeometry x="260" y="1310" width="140" height="50" as="geometry" />
        </mxCell>
        <mxCell id="Vui1hRb9voWoBhlo4_W3-61" value="Process refund" style="ellipse;whiteSpace=wrap;html=1;" vertex="1" parent="1">
          <mxGeometry x="260" y="1190" width="210" height="50" as="geometry" />
        </mxCell>
        <mxCell id="Vui1hRb9voWoBhlo4_W3-62" value="" style="endArrow=none;dashed=1;html=1;rounded=0;startArrow=open;startFill=0;exitX=0.5;exitY=1;exitDx=0;exitDy=0;entryX=0.5;entryY=0;entryDx=0;entryDy=0;" edge="1" parent="1" source="Vui1hRb9voWoBhlo4_W3-61" target="Vui1hRb9voWoBhlo4_W3-59">
          <mxGeometry width="50" height="50" relative="1" as="geometry">
            <mxPoint x="475" y="1350" as="sourcePoint" />
            <mxPoint x="440" y="1280" as="targetPoint" />
          </mxGeometry>
        </mxCell>
        <mxCell id="Vui1hRb9voWoBhlo4_W3-63" value="&lt;font style=&quot;font-size: 10px;&quot;&gt;&amp;lt;&amp;lt;include&amp;gt;&amp;gt;&lt;/font&gt;" style="text;html=1;align=center;verticalAlign=middle;whiteSpace=wrap;rounded=0;" vertex="1" parent="1">
          <mxGeometry x="355" y="1260" width="60" height="30" as="geometry" />
        </mxCell>
        <mxCell id="Vui1hRb9voWoBhlo4_W3-64" value="" style="endArrow=none;dashed=1;html=1;rounded=0;startArrow=open;startFill=0;exitX=1;exitY=0;exitDx=0;exitDy=0;entryX=0;entryY=1;entryDx=0;entryDy=0;" edge="1" parent="1" source="Vui1hRb9voWoBhlo4_W3-61" target="Vui1hRb9voWoBhlo4_W3-53">
          <mxGeometry width="50" height="50" relative="1" as="geometry">
            <mxPoint x="444" y="1124" as="sourcePoint" />
            <mxPoint x="538" y="1170" as="targetPoint" />
          </mxGeometry>
        </mxCell>
        <mxCell id="Vui1hRb9voWoBhlo4_W3-65" value="&lt;font style=&quot;font-size: 10px;&quot;&gt;&amp;lt;&amp;lt;extend&amp;gt;&amp;gt;&lt;/font&gt;" style="text;html=1;align=center;verticalAlign=middle;whiteSpace=wrap;rounded=0;" vertex="1" parent="1">
          <mxGeometry x="480" y="1185" width="60" height="30" as="geometry" />
        </mxCell>
        <mxCell id="Vui1hRb9voWoBhlo4_W3-66" value="" style="endArrow=none;html=1;rounded=0;entryX=0;entryY=0;entryDx=0;entryDy=0;" edge="1" parent="1" target="Vui1hRb9voWoBhlo4_W3-59">
          <mxGeometry width="50" height="50" relative="1" as="geometry">
            <mxPoint x="100" y="1190" as="sourcePoint" />
            <mxPoint x="310" y="1008" as="targetPoint" />
          </mxGeometry>
        </mxCell>
        <mxCell id="Vui1hRb9voWoBhlo4_W3-85" value="" style="rounded=0;whiteSpace=wrap;html=1;" vertex="1" parent="1">
          <mxGeometry x="190" y="1540" width="500" height="370" as="geometry" />
        </mxCell>
        <mxCell id="Vui1hRb9voWoBhlo4_W3-86" value="Registration Agent" style="text;html=1;align=center;verticalAlign=middle;whiteSpace=wrap;rounded=0;" vertex="1" parent="1">
          <mxGeometry x="355" y="1540" width="120" height="30" as="geometry" />
        </mxCell>
        <mxCell id="Vui1hRb9voWoBhlo4_W3-87" value="Customer" style="shape=umlActor;verticalLabelPosition=bottom;verticalAlign=top;html=1;outlineConnect=0;" vertex="1" parent="1">
          <mxGeometry x="70" y="1695" width="30" height="60" as="geometry" />
        </mxCell>
        <mxCell id="Vui1hRb9voWoBhlo4_W3-88" value="Register" style="ellipse;whiteSpace=wrap;html=1;" vertex="1" parent="1">
          <mxGeometry x="260" y="1580" width="140" height="50" as="geometry" />
        </mxCell>
        <mxCell id="Vui1hRb9voWoBhlo4_W3-89" value="Deregister" style="ellipse;whiteSpace=wrap;html=1;" vertex="1" parent="1">
          <mxGeometry x="260" y="1820" width="140" height="50" as="geometry" />
        </mxCell>
        <mxCell id="Vui1hRb9voWoBhlo4_W3-90" value="Check customer data in data storage" style="ellipse;whiteSpace=wrap;html=1;" vertex="1" parent="1">
          <mxGeometry x="260" y="1700" width="210" height="50" as="geometry" />
        </mxCell>
        <mxCell id="Vui1hRb9voWoBhlo4_W3-91" value="Update data storage" style="ellipse;whiteSpace=wrap;html=1;" vertex="1" parent="1">
          <mxGeometry x="510" y="1620" width="140" height="50" as="geometry" />
        </mxCell>
        <mxCell id="Vui1hRb9voWoBhlo4_W3-92" value="" style="endArrow=none;dashed=1;html=1;rounded=0;startArrow=open;startFill=0;exitX=0.885;exitY=0.231;exitDx=0;exitDy=0;exitPerimeter=0;" edge="1" parent="1" source="Vui1hRb9voWoBhlo4_W3-90">
          <mxGeometry width="50" height="50" relative="1" as="geometry">
            <mxPoint x="470" y="1710" as="sourcePoint" />
            <mxPoint x="520" y="1660" as="targetPoint" />
          </mxGeometry>
        </mxCell>
        <mxCell id="Vui1hRb9voWoBhlo4_W3-93" value="" style="endArrow=none;dashed=1;html=1;rounded=0;startArrow=open;startFill=0;exitX=0.5;exitY=0;exitDx=0;exitDy=0;entryX=0.5;entryY=1;entryDx=0;entryDy=0;" edge="1" parent="1" source="Vui1hRb9voWoBhlo4_W3-90" target="Vui1hRb9voWoBhlo4_W3-88">
          <mxGeometry width="50" height="50" relative="1" as="geometry">
            <mxPoint x="456" y="1722" as="sourcePoint" />
            <mxPoint x="530" y="1670" as="targetPoint" />
          </mxGeometry>
        </mxCell>
        <mxCell id="Vui1hRb9voWoBhlo4_W3-94" value="" style="endArrow=none;dashed=1;html=1;rounded=0;startArrow=open;startFill=0;exitX=0.5;exitY=1;exitDx=0;exitDy=0;entryX=0.544;entryY=0.026;entryDx=0;entryDy=0;entryPerimeter=0;" edge="1" parent="1" source="Vui1hRb9voWoBhlo4_W3-90" target="Vui1hRb9voWoBhlo4_W3-89">
          <mxGeometry width="50" height="50" relative="1" as="geometry">
            <mxPoint x="466" y="1732" as="sourcePoint" />
            <mxPoint x="540" y="1680" as="targetPoint" />
          </mxGeometry>
        </mxCell>
        <mxCell id="Vui1hRb9voWoBhlo4_W3-95" value="" style="endArrow=none;html=1;rounded=0;" edge="1" parent="1" target="Vui1hRb9voWoBhlo4_W3-88">
          <mxGeometry width="50" height="50" relative="1" as="geometry">
            <mxPoint x="120" y="1710" as="sourcePoint" />
            <mxPoint x="190" y="1670" as="targetPoint" />
          </mxGeometry>
        </mxCell>
        <mxCell id="Vui1hRb9voWoBhlo4_W3-96" value="" style="endArrow=none;html=1;rounded=0;entryX=0;entryY=0;entryDx=0;entryDy=0;" edge="1" parent="1" target="Vui1hRb9voWoBhlo4_W3-89">
          <mxGeometry width="50" height="50" relative="1" as="geometry">
            <mxPoint x="120" y="1740" as="sourcePoint" />
            <mxPoint x="299" y="1635" as="targetPoint" />
          </mxGeometry>
        </mxCell>
        <mxCell id="Vui1hRb9voWoBhlo4_W3-97" value="&lt;font style=&quot;font-size: 10px;&quot;&gt;&amp;lt;&amp;lt;extend&amp;gt;&amp;gt;&lt;/font&gt;" style="text;html=1;align=center;verticalAlign=middle;whiteSpace=wrap;rounded=0;" vertex="1" parent="1">
          <mxGeometry x="490" y="1670" width="60" height="30" as="geometry" />
        </mxCell>
        <mxCell id="Vui1hRb9voWoBhlo4_W3-98" value="&lt;font style=&quot;font-size: 10px;&quot;&gt;&amp;lt;&amp;lt;include&amp;gt;&amp;gt;&lt;/font&gt;" style="text;html=1;align=center;verticalAlign=middle;whiteSpace=wrap;rounded=0;" vertex="1" parent="1">
          <mxGeometry x="340" y="1630" width="60" height="30" as="geometry" />
        </mxCell>
        <mxCell id="Vui1hRb9voWoBhlo4_W3-99" value="&lt;font style=&quot;font-size: 10px;&quot;&gt;&amp;lt;&amp;lt;include&amp;gt;&amp;gt;&lt;/font&gt;" style="text;html=1;align=center;verticalAlign=middle;whiteSpace=wrap;rounded=0;" vertex="1" parent="1">
          <mxGeometry x="355" y="1770" width="60" height="30" as="geometry" />
        </mxCell>
        <mxCell id="Vui1hRb9voWoBhlo4_W3-100" value="" style="rounded=0;whiteSpace=wrap;html=1;" vertex="1" parent="1">
          <mxGeometry x="190" y="2030" width="500" height="250" as="geometry" />
        </mxCell>
        <mxCell id="Vui1hRb9voWoBhlo4_W3-101" value="Verification Agent" style="text;html=1;align=center;verticalAlign=middle;whiteSpace=wrap;rounded=0;" vertex="1" parent="1">
          <mxGeometry x="355" y="2030" width="120" height="30" as="geometry" />
        </mxCell>
        <mxCell id="Vui1hRb9voWoBhlo4_W3-102" value="Customer" style="shape=umlActor;verticalLabelPosition=bottom;verticalAlign=top;html=1;outlineConnect=0;" vertex="1" parent="1">
          <mxGeometry x="60" y="2120" width="30" height="60" as="geometry" />
        </mxCell>
        <mxCell id="Vui1hRb9voWoBhlo4_W3-103" value="Verification" style="ellipse;whiteSpace=wrap;html=1;" vertex="1" parent="1">
          <mxGeometry x="260" y="2070" width="140" height="50" as="geometry" />
        </mxCell>
        <mxCell id="Vui1hRb9voWoBhlo4_W3-105" value="Check data storage" style="ellipse;whiteSpace=wrap;html=1;" vertex="1" parent="1">
          <mxGeometry x="260" y="2190" width="210" height="50" as="geometry" />
        </mxCell>
        <mxCell id="Vui1hRb9voWoBhlo4_W3-106" value="Update data storage" style="ellipse;whiteSpace=wrap;html=1;" vertex="1" parent="1">
          <mxGeometry x="510" y="2110" width="140" height="50" as="geometry" />
        </mxCell>
        <mxCell id="Vui1hRb9voWoBhlo4_W3-107" value="" style="endArrow=none;dashed=1;html=1;rounded=0;startArrow=open;startFill=0;exitX=0.885;exitY=0.231;exitDx=0;exitDy=0;exitPerimeter=0;" edge="1" parent="1" source="Vui1hRb9voWoBhlo4_W3-105">
          <mxGeometry width="50" height="50" relative="1" as="geometry">
            <mxPoint x="470" y="2200" as="sourcePoint" />
            <mxPoint x="520" y="2150" as="targetPoint" />
          </mxGeometry>
        </mxCell>
        <mxCell id="Vui1hRb9voWoBhlo4_W3-108" value="" style="endArrow=none;dashed=1;html=1;rounded=0;startArrow=open;startFill=0;exitX=0.5;exitY=0;exitDx=0;exitDy=0;entryX=0.5;entryY=1;entryDx=0;entryDy=0;" edge="1" parent="1" source="Vui1hRb9voWoBhlo4_W3-105" target="Vui1hRb9voWoBhlo4_W3-103">
          <mxGeometry width="50" height="50" relative="1" as="geometry">
            <mxPoint x="456" y="2212" as="sourcePoint" />
            <mxPoint x="530" y="2160" as="targetPoint" />
          </mxGeometry>
        </mxCell>
        <mxCell id="Vui1hRb9voWoBhlo4_W3-110" value="" style="endArrow=none;html=1;rounded=0;" edge="1" parent="1" target="Vui1hRb9voWoBhlo4_W3-103">
          <mxGeometry width="50" height="50" relative="1" as="geometry">
            <mxPoint x="110" y="2160" as="sourcePoint" />
            <mxPoint x="190" y="2160" as="targetPoint" />
          </mxGeometry>
        </mxCell>
        <mxCell id="Vui1hRb9voWoBhlo4_W3-112" value="&lt;font style=&quot;font-size: 10px;&quot;&gt;&amp;lt;&amp;lt;extend&amp;gt;&amp;gt;&lt;/font&gt;" style="text;html=1;align=center;verticalAlign=middle;whiteSpace=wrap;rounded=0;" vertex="1" parent="1">
          <mxGeometry x="490" y="2160" width="60" height="30" as="geometry" />
        </mxCell>
        <mxCell id="Vui1hRb9voWoBhlo4_W3-113" value="&lt;font style=&quot;font-size: 10px;&quot;&gt;&amp;lt;&amp;lt;include&amp;gt;&amp;gt;&lt;/font&gt;" style="text;html=1;align=center;verticalAlign=middle;whiteSpace=wrap;rounded=0;" vertex="1" parent="1">
          <mxGeometry x="340" y="2120" width="60" height="30" as="geometry" />
        </mxCell>
        <mxCell id="Vui1hRb9voWoBhlo4_W3-115" value="" style="rounded=0;whiteSpace=wrap;html=1;" vertex="1" parent="1">
          <mxGeometry x="190" y="2390" width="500" height="250" as="geometry" />
        </mxCell>
        <mxCell id="Vui1hRb9voWoBhlo4_W3-116" value="Gateway Agent" style="text;html=1;align=center;verticalAlign=middle;whiteSpace=wrap;rounded=0;" vertex="1" parent="1">
          <mxGeometry x="355" y="2390" width="120" height="30" as="geometry" />
        </mxCell>
        <mxCell id="Vui1hRb9voWoBhlo4_W3-117" value="Admin" style="shape=umlActor;verticalLabelPosition=bottom;verticalAlign=top;html=1;outlineConnect=0;" vertex="1" parent="1">
          <mxGeometry x="60" y="2480" width="30" height="60" as="geometry" />
        </mxCell>
        <mxCell id="Vui1hRb9voWoBhlo4_W3-118" value="Process payment" style="ellipse;whiteSpace=wrap;html=1;" vertex="1" parent="1">
          <mxGeometry x="260" y="2430" width="140" height="50" as="geometry" />
        </mxCell>
        <mxCell id="Vui1hRb9voWoBhlo4_W3-119" value="Communicate with external payment services" style="ellipse;whiteSpace=wrap;html=1;" vertex="1" parent="1">
          <mxGeometry x="415" y="2540" width="210" height="50" as="geometry" />
        </mxCell>
        <mxCell id="Vui1hRb9voWoBhlo4_W3-122" value="" style="endArrow=none;dashed=1;html=1;rounded=0;startArrow=open;startFill=0;exitX=0.5;exitY=0;exitDx=0;exitDy=0;entryX=0.5;entryY=1;entryDx=0;entryDy=0;" edge="1" parent="1" source="Vui1hRb9voWoBhlo4_W3-119" target="Vui1hRb9voWoBhlo4_W3-118">
          <mxGeometry width="50" height="50" relative="1" as="geometry">
            <mxPoint x="456" y="2572" as="sourcePoint" />
            <mxPoint x="530" y="2520" as="targetPoint" />
          </mxGeometry>
        </mxCell>
        <mxCell id="Vui1hRb9voWoBhlo4_W3-123" value="" style="endArrow=none;html=1;rounded=0;" edge="1" parent="1" target="Vui1hRb9voWoBhlo4_W3-118">
          <mxGeometry width="50" height="50" relative="1" as="geometry">
            <mxPoint x="110" y="2520" as="sourcePoint" />
            <mxPoint x="190" y="2520" as="targetPoint" />
          </mxGeometry>
        </mxCell>
        <mxCell id="Vui1hRb9voWoBhlo4_W3-125" value="&lt;font style=&quot;font-size: 10px;&quot;&gt;&amp;lt;&amp;lt;include&amp;gt;&amp;gt;&lt;/font&gt;" style="text;html=1;align=center;verticalAlign=middle;whiteSpace=wrap;rounded=0;" vertex="1" parent="1">
          <mxGeometry x="420" y="2480" width="60" height="30" as="geometry" />
        </mxCell>
        <mxCell id="Vui1hRb9voWoBhlo4_W3-127" value="" style="rounded=0;whiteSpace=wrap;html=1;" vertex="1" parent="1">
          <mxGeometry x="190" y="2820" width="790" height="940" as="geometry" />
        </mxCell>
        <mxCell id="Vui1hRb9voWoBhlo4_W3-128" value="Customer" style="shape=umlActor;verticalLabelPosition=bottom;verticalAlign=top;html=1;outlineConnect=0;" vertex="1" parent="1">
          <mxGeometry x="26" y="3040" width="30" height="60" as="geometry" />
        </mxCell>
        <mxCell id="Vui1hRb9voWoBhlo4_W3-129" value="Admin" style="shape=umlActor;verticalLabelPosition=bottom;verticalAlign=top;html=1;outlineConnect=0;" vertex="1" parent="1">
          <mxGeometry x="1140" y="3450" width="30" height="60" as="geometry" />
        </mxCell>
        <mxCell id="Vui1hRb9voWoBhlo4_W3-130" value="Register" style="ellipse;whiteSpace=wrap;html=1;" vertex="1" parent="1">
          <mxGeometry x="260" y="2850" width="140" height="50" as="geometry" />
        </mxCell>
        <mxCell id="Vui1hRb9voWoBhlo4_W3-131" value="Deregister" style="ellipse;whiteSpace=wrap;html=1;" vertex="1" parent="1">
          <mxGeometry x="260" y="2950" width="140" height="50" as="geometry" />
        </mxCell>
        <mxCell id="Vui1hRb9voWoBhlo4_W3-132" value="Verification" style="ellipse;whiteSpace=wrap;html=1;" vertex="1" parent="1">
          <mxGeometry x="410" y="3080" width="140" height="50" as="geometry" />
        </mxCell>
        <mxCell id="Vui1hRb9voWoBhlo4_W3-133" value="Check customer data in data storage" style="ellipse;whiteSpace=wrap;html=1;" vertex="1" parent="1">
          <mxGeometry x="530" y="2930" width="210" height="50" as="geometry" />
        </mxCell>
        <mxCell id="Vui1hRb9voWoBhlo4_W3-134" value="Update data storage" style="ellipse;whiteSpace=wrap;html=1;" vertex="1" parent="1">
          <mxGeometry x="800" y="3070" width="140" height="50" as="geometry" />
        </mxCell>
        <mxCell id="Vui1hRb9voWoBhlo4_W3-135" value="Book reservation" style="ellipse;whiteSpace=wrap;html=1;" vertex="1" parent="1">
          <mxGeometry x="260" y="3180" width="140" height="50" as="geometry" />
        </mxCell>
        <mxCell id="Vui1hRb9voWoBhlo4_W3-136" value="Cancel reservation" style="ellipse;whiteSpace=wrap;html=1;" vertex="1" parent="1">
          <mxGeometry x="320" y="3280" width="140" height="50" as="geometry" />
        </mxCell>
        <mxCell id="Vui1hRb9voWoBhlo4_W3-137" value="Check vehicle availability in data storage" style="ellipse;whiteSpace=wrap;html=1;" vertex="1" parent="1">
          <mxGeometry x="565" y="3220" width="210" height="50" as="geometry" />
        </mxCell>
        <mxCell id="Vui1hRb9voWoBhlo4_W3-138" value="Pay rent" style="ellipse;whiteSpace=wrap;html=1;" vertex="1" parent="1">
          <mxGeometry x="380" y="3380" width="140" height="50" as="geometry" />
        </mxCell>
        <mxCell id="Vui1hRb9voWoBhlo4_W3-139" value="Initiate refund" style="ellipse;whiteSpace=wrap;html=1;" vertex="1" parent="1">
          <mxGeometry x="425" y="3480" width="140" height="50" as="geometry" />
        </mxCell>
        <mxCell id="Vui1hRb9voWoBhlo4_W3-140" value="Update vehicle status" style="ellipse;whiteSpace=wrap;html=1;" vertex="1" parent="1">
          <mxGeometry x="690" y="3350" width="140" height="50" as="geometry" />
        </mxCell>
        <mxCell id="Vui1hRb9voWoBhlo4_W3-141" value="Process payment via gateway" style="ellipse;whiteSpace=wrap;html=1;" vertex="1" parent="1">
          <mxGeometry x="680" y="3460" width="210" height="50" as="geometry" />
        </mxCell>
        <mxCell id="Vui1hRb9voWoBhlo4_W3-142" value="Process refund" style="ellipse;whiteSpace=wrap;html=1;" vertex="1" parent="1">
          <mxGeometry x="710" y="3600" width="210" height="50" as="geometry" />
        </mxCell>
        <mxCell id="Vui1hRb9voWoBhlo4_W3-143" value="Communicate with external payment services" style="ellipse;whiteSpace=wrap;html=1;" vertex="1" parent="1">
          <mxGeometry x="420" y="3650" width="210" height="50" as="geometry" />
        </mxCell>
        <mxCell id="Vui1hRb9voWoBhlo4_W3-144" value="" style="endArrow=none;html=1;rounded=0;entryX=0;entryY=0.5;entryDx=0;entryDy=0;" edge="1" parent="1" target="Vui1hRb9voWoBhlo4_W3-130">
          <mxGeometry width="50" height="50" relative="1" as="geometry">
            <mxPoint x="80" y="3049" as="sourcePoint" />
            <mxPoint x="246" y="3000" as="targetPoint" />
          </mxGeometry>
        </mxCell>
        <mxCell id="Vui1hRb9voWoBhlo4_W3-145" value="" style="endArrow=none;html=1;rounded=0;entryX=0;entryY=0.5;entryDx=0;entryDy=0;" edge="1" parent="1" target="Vui1hRb9voWoBhlo4_W3-131">
          <mxGeometry width="50" height="50" relative="1" as="geometry">
            <mxPoint x="90" y="3070" as="sourcePoint" />
            <mxPoint x="270" y="2885" as="targetPoint" />
          </mxGeometry>
        </mxCell>
        <mxCell id="Vui1hRb9voWoBhlo4_W3-146" value="" style="endArrow=none;html=1;rounded=0;" edge="1" parent="1" target="Vui1hRb9voWoBhlo4_W3-132">
          <mxGeometry width="50" height="50" relative="1" as="geometry">
            <mxPoint x="90" y="3090" as="sourcePoint" />
            <mxPoint x="280" y="2895" as="targetPoint" />
          </mxGeometry>
        </mxCell>
        <mxCell id="Vui1hRb9voWoBhlo4_W3-147" value="" style="endArrow=none;html=1;rounded=0;entryX=0.5;entryY=0;entryDx=0;entryDy=0;" edge="1" parent="1" target="Vui1hRb9voWoBhlo4_W3-135">
          <mxGeometry width="50" height="50" relative="1" as="geometry">
            <mxPoint x="90" y="3110" as="sourcePoint" />
            <mxPoint x="290" y="2905" as="targetPoint" />
          </mxGeometry>
        </mxCell>
        <mxCell id="Vui1hRb9voWoBhlo4_W3-148" value="" style="endArrow=none;html=1;rounded=0;entryX=0;entryY=0.5;entryDx=0;entryDy=0;" edge="1" parent="1" target="Vui1hRb9voWoBhlo4_W3-136">
          <mxGeometry width="50" height="50" relative="1" as="geometry">
            <mxPoint x="80" y="3120" as="sourcePoint" />
            <mxPoint x="340" y="3190" as="targetPoint" />
            <Array as="points">
              <mxPoint x="170" y="3220" />
            </Array>
          </mxGeometry>
        </mxCell>
        <mxCell id="Vui1hRb9voWoBhlo4_W3-149" value="" style="endArrow=none;html=1;rounded=0;entryX=0;entryY=0.5;entryDx=0;entryDy=0;" edge="1" parent="1" target="Vui1hRb9voWoBhlo4_W3-138">
          <mxGeometry width="50" height="50" relative="1" as="geometry">
            <mxPoint x="60" y="3130" as="sourcePoint" />
            <mxPoint x="330" y="3315" as="targetPoint" />
            <Array as="points">
              <mxPoint x="160" y="3270" />
            </Array>
          </mxGeometry>
        </mxCell>
        <mxCell id="Vui1hRb9voWoBhlo4_W3-150" value="" style="endArrow=none;html=1;rounded=0;entryX=0;entryY=0.5;entryDx=0;entryDy=0;" edge="1" parent="1" target="Vui1hRb9voWoBhlo4_W3-139">
          <mxGeometry width="50" height="50" relative="1" as="geometry">
            <mxPoint x="40" y="3140" as="sourcePoint" />
            <mxPoint x="260" y="3340" as="targetPoint" />
            <Array as="points">
              <mxPoint x="180" y="3350" />
            </Array>
          </mxGeometry>
        </mxCell>
        <mxCell id="Vui1hRb9voWoBhlo4_W3-151" value="" style="endArrow=none;dashed=1;html=1;rounded=0;startArrow=open;startFill=0;entryX=1;entryY=0.5;entryDx=0;entryDy=0;" edge="1" parent="1" source="Vui1hRb9voWoBhlo4_W3-133" target="Vui1hRb9voWoBhlo4_W3-130">
          <mxGeometry width="50" height="50" relative="1" as="geometry">
            <mxPoint x="550" y="2800" as="sourcePoint" />
            <mxPoint x="360" y="2740" as="targetPoint" />
          </mxGeometry>
        </mxCell>
        <mxCell id="Vui1hRb9voWoBhlo4_W3-152" value="&lt;font style=&quot;font-size: 10px;&quot;&gt;&amp;lt;&amp;lt;include&amp;gt;&amp;gt;&lt;/font&gt;" style="text;html=1;align=center;verticalAlign=middle;whiteSpace=wrap;rounded=0;" vertex="1" parent="1">
          <mxGeometry x="460" y="2870" width="60" height="30" as="geometry" />
        </mxCell>
        <mxCell id="Vui1hRb9voWoBhlo4_W3-153" value="" style="endArrow=none;dashed=1;html=1;rounded=0;startArrow=open;startFill=0;entryX=1;entryY=0;entryDx=0;entryDy=0;" edge="1" parent="1" source="Vui1hRb9voWoBhlo4_W3-133" target="Vui1hRb9voWoBhlo4_W3-131">
          <mxGeometry width="50" height="50" relative="1" as="geometry">
            <mxPoint x="585" y="2944" as="sourcePoint" />
            <mxPoint x="410" y="2885" as="targetPoint" />
          </mxGeometry>
        </mxCell>
        <mxCell id="Vui1hRb9voWoBhlo4_W3-154" value="" style="endArrow=none;dashed=1;html=1;rounded=0;startArrow=open;startFill=0;entryX=0.5;entryY=0;entryDx=0;entryDy=0;exitX=0.26;exitY=0.946;exitDx=0;exitDy=0;exitPerimeter=0;" edge="1" parent="1" source="Vui1hRb9voWoBhlo4_W3-133" target="Vui1hRb9voWoBhlo4_W3-132">
          <mxGeometry width="50" height="50" relative="1" as="geometry">
            <mxPoint x="585" y="2944" as="sourcePoint" />
            <mxPoint x="410" y="2885" as="targetPoint" />
          </mxGeometry>
        </mxCell>
        <mxCell id="Vui1hRb9voWoBhlo4_W3-155" value="&lt;font style=&quot;font-size: 10px;&quot;&gt;&amp;lt;&amp;lt;include&amp;gt;&amp;gt;&lt;/font&gt;" style="text;html=1;align=center;verticalAlign=middle;whiteSpace=wrap;rounded=0;" vertex="1" parent="1">
          <mxGeometry x="430" y="2930" width="60" height="30" as="geometry" />
        </mxCell>
        <mxCell id="Vui1hRb9voWoBhlo4_W3-156" value="&lt;font style=&quot;font-size: 10px;&quot;&gt;&amp;lt;&amp;lt;include&amp;gt;&amp;gt;&lt;/font&gt;" style="text;html=1;align=center;verticalAlign=middle;whiteSpace=wrap;rounded=0;" vertex="1" parent="1">
          <mxGeometry x="490" y="3000" width="60" height="30" as="geometry" />
        </mxCell>
        <mxCell id="Vui1hRb9voWoBhlo4_W3-157" value="" style="endArrow=none;dashed=1;html=1;rounded=0;startArrow=open;startFill=0;entryX=0.334;entryY=0.066;entryDx=0;entryDy=0;entryPerimeter=0;exitX=1;exitY=1;exitDx=0;exitDy=0;" edge="1" parent="1" source="Vui1hRb9voWoBhlo4_W3-133" target="Vui1hRb9voWoBhlo4_W3-134">
          <mxGeometry width="50" height="50" relative="1" as="geometry">
            <mxPoint x="585" y="2944" as="sourcePoint" />
            <mxPoint x="410" y="2885" as="targetPoint" />
          </mxGeometry>
        </mxCell>
        <mxCell id="Vui1hRb9voWoBhlo4_W3-158" value="&lt;font style=&quot;font-size: 10px;&quot;&gt;&amp;lt;&amp;lt;extend&amp;gt;&amp;gt;&lt;/font&gt;" style="text;html=1;align=center;verticalAlign=middle;whiteSpace=wrap;rounded=0;" vertex="1" parent="1">
          <mxGeometry x="760" y="2990" width="60" height="30" as="geometry" />
        </mxCell>
        <mxCell id="Vui1hRb9voWoBhlo4_W3-159" value="" style="endArrow=none;dashed=1;html=1;rounded=0;startArrow=open;startFill=0;entryX=0;entryY=1;entryDx=0;entryDy=0;exitX=1;exitY=0;exitDx=0;exitDy=0;" edge="1" parent="1" source="Vui1hRb9voWoBhlo4_W3-137" target="Vui1hRb9voWoBhlo4_W3-134">
          <mxGeometry width="50" height="50" relative="1" as="geometry">
            <mxPoint x="720" y="2983" as="sourcePoint" />
            <mxPoint x="857" y="3083" as="targetPoint" />
          </mxGeometry>
        </mxCell>
        <mxCell id="Vui1hRb9voWoBhlo4_W3-160" value="&lt;font style=&quot;font-size: 10px;&quot;&gt;&amp;lt;&amp;lt;extend&amp;gt;&amp;gt;&lt;/font&gt;" style="text;html=1;align=center;verticalAlign=middle;whiteSpace=wrap;rounded=0;" vertex="1" parent="1">
          <mxGeometry x="730" y="3150" width="60" height="30" as="geometry" />
        </mxCell>
        <mxCell id="Vui1hRb9voWoBhlo4_W3-161" value="" style="endArrow=none;html=1;rounded=0;exitX=1;exitY=0.5;exitDx=0;exitDy=0;" edge="1" parent="1" source="Vui1hRb9voWoBhlo4_W3-140">
          <mxGeometry width="50" height="50" relative="1" as="geometry">
            <mxPoint x="1080" y="3510" as="sourcePoint" />
            <mxPoint x="1110" y="3460" as="targetPoint" />
          </mxGeometry>
        </mxCell>
        <mxCell id="Vui1hRb9voWoBhlo4_W3-162" value="" style="endArrow=none;html=1;rounded=0;" edge="1" parent="1" source="Vui1hRb9voWoBhlo4_W3-141">
          <mxGeometry width="50" height="50" relative="1" as="geometry">
            <mxPoint x="950" y="3375" as="sourcePoint" />
            <mxPoint x="1110" y="3490" as="targetPoint" />
          </mxGeometry>
        </mxCell>
        <mxCell id="Vui1hRb9voWoBhlo4_W3-163" value="" style="endArrow=none;html=1;rounded=0;exitX=1;exitY=0.5;exitDx=0;exitDy=0;" edge="1" parent="1" source="Vui1hRb9voWoBhlo4_W3-142">
          <mxGeometry width="50" height="50" relative="1" as="geometry">
            <mxPoint x="900" y="3497" as="sourcePoint" />
            <mxPoint x="1120" y="3530" as="targetPoint" />
          </mxGeometry>
        </mxCell>
        <mxCell id="Vui1hRb9voWoBhlo4_W3-164" value="" style="endArrow=none;dashed=1;html=1;rounded=0;startArrow=open;startFill=0;entryX=0;entryY=0;entryDx=0;entryDy=0;exitX=0.833;exitY=0.8;exitDx=0;exitDy=0;exitPerimeter=0;" edge="1" parent="1" source="Vui1hRb9voWoBhlo4_W3-137" target="Vui1hRb9voWoBhlo4_W3-140">
          <mxGeometry width="50" height="50" relative="1" as="geometry">
            <mxPoint x="755" y="3287" as="sourcePoint" />
            <mxPoint x="650" y="3390" as="targetPoint" />
          </mxGeometry>
        </mxCell>
        <mxCell id="Vui1hRb9voWoBhlo4_W3-165" value="&lt;font style=&quot;font-size: 10px;&quot;&gt;&amp;lt;&amp;lt;include&amp;gt;&amp;gt;&lt;/font&gt;" style="text;html=1;align=center;verticalAlign=middle;whiteSpace=wrap;rounded=0;" vertex="1" parent="1">
          <mxGeometry x="730" y="3310" width="60" height="30" as="geometry" />
        </mxCell>
        <mxCell id="Vui1hRb9voWoBhlo4_W3-166" value="" style="endArrow=none;dashed=1;html=1;rounded=0;startArrow=open;startFill=0;entryX=1;entryY=0;entryDx=0;entryDy=0;exitX=0.089;exitY=0.788;exitDx=0;exitDy=0;exitPerimeter=0;" edge="1" parent="1" source="Vui1hRb9voWoBhlo4_W3-132" target="Vui1hRb9voWoBhlo4_W3-135">
          <mxGeometry width="50" height="50" relative="1" as="geometry">
            <mxPoint x="540" y="2966" as="sourcePoint" />
            <mxPoint x="390" y="2967" as="targetPoint" />
          </mxGeometry>
        </mxCell>
        <mxCell id="Vui1hRb9voWoBhlo4_W3-167" value="" style="endArrow=none;dashed=1;html=1;rounded=0;startArrow=open;startFill=0;exitX=0.247;exitY=0.912;exitDx=0;exitDy=0;exitPerimeter=0;" edge="1" parent="1" source="Vui1hRb9voWoBhlo4_W3-132" target="Vui1hRb9voWoBhlo4_W3-136">
          <mxGeometry width="50" height="50" relative="1" as="geometry">
            <mxPoint x="550" y="2976" as="sourcePoint" />
            <mxPoint x="400" y="2977" as="targetPoint" />
            <Array as="points">
              <mxPoint x="440" y="3220" />
            </Array>
          </mxGeometry>
        </mxCell>
        <mxCell id="Vui1hRb9voWoBhlo4_W3-168" value="" style="endArrow=none;dashed=1;html=1;rounded=0;startArrow=open;startFill=0;entryX=0.634;entryY=-0.04;entryDx=0;entryDy=0;entryPerimeter=0;exitX=0.5;exitY=1;exitDx=0;exitDy=0;" edge="1" parent="1" source="Vui1hRb9voWoBhlo4_W3-132" target="Vui1hRb9voWoBhlo4_W3-138">
          <mxGeometry width="50" height="50" relative="1" as="geometry">
            <mxPoint x="560" y="2986" as="sourcePoint" />
            <mxPoint x="410" y="2987" as="targetPoint" />
            <Array as="points">
              <mxPoint x="490" y="3270" />
            </Array>
          </mxGeometry>
        </mxCell>
        <mxCell id="Vui1hRb9voWoBhlo4_W3-169" value="" style="endArrow=none;dashed=1;html=1;rounded=0;startArrow=open;startFill=0;entryX=1;entryY=1;entryDx=0;entryDy=0;exitX=0.725;exitY=0.981;exitDx=0;exitDy=0;exitPerimeter=0;" edge="1" parent="1" source="Vui1hRb9voWoBhlo4_W3-132" target="Vui1hRb9voWoBhlo4_W3-173">
          <mxGeometry width="50" height="50" relative="1" as="geometry">
            <mxPoint x="570" y="2996" as="sourcePoint" />
            <mxPoint x="420" y="2997" as="targetPoint" />
            <Array as="points">
              <mxPoint x="540" y="3310" />
            </Array>
          </mxGeometry>
        </mxCell>
        <mxCell id="Vui1hRb9voWoBhlo4_W3-170" value="&lt;font style=&quot;font-size: 10px;&quot;&gt;&amp;lt;&amp;lt;include&amp;gt;&amp;gt;&lt;/font&gt;" style="text;html=1;align=center;verticalAlign=middle;whiteSpace=wrap;rounded=0;" vertex="1" parent="1">
          <mxGeometry x="340" y="3130" width="60" height="30" as="geometry" />
        </mxCell>
        <mxCell id="Vui1hRb9voWoBhlo4_W3-171" value="&lt;font style=&quot;font-size: 10px;&quot;&gt;&amp;lt;&amp;lt;include&amp;gt;&amp;gt;&lt;/font&gt;" style="text;html=1;align=center;verticalAlign=middle;whiteSpace=wrap;rounded=0;" vertex="1" parent="1">
          <mxGeometry x="355" y="3250" width="60" height="30" as="geometry" />
        </mxCell>
        <mxCell id="Vui1hRb9voWoBhlo4_W3-172" value="&lt;font style=&quot;font-size: 10px;&quot;&gt;&amp;lt;&amp;lt;include&amp;gt;&amp;gt;&lt;/font&gt;" style="text;html=1;align=center;verticalAlign=middle;whiteSpace=wrap;rounded=0;" vertex="1" parent="1">
          <mxGeometry x="410" y="3350" width="60" height="30" as="geometry" />
        </mxCell>
        <mxCell id="Vui1hRb9voWoBhlo4_W3-173" value="&lt;font style=&quot;font-size: 10px;&quot;&gt;&amp;lt;&amp;lt;include&amp;gt;&amp;gt;&lt;/font&gt;" style="text;html=1;align=center;verticalAlign=middle;whiteSpace=wrap;rounded=0;" vertex="1" parent="1">
          <mxGeometry x="470" y="3450" width="60" height="30" as="geometry" />
        </mxCell>
        <mxCell id="Vui1hRb9voWoBhlo4_W3-174" value="" style="endArrow=none;dashed=1;html=1;rounded=0;startArrow=open;startFill=0;entryX=1;entryY=0.5;entryDx=0;entryDy=0;exitX=0.192;exitY=0.113;exitDx=0;exitDy=0;exitPerimeter=0;" edge="1" parent="1" source="Vui1hRb9voWoBhlo4_W3-137" target="Vui1hRb9voWoBhlo4_W3-135">
          <mxGeometry width="50" height="50" relative="1" as="geometry">
            <mxPoint x="432" y="3129" as="sourcePoint" />
            <mxPoint x="389" y="3197" as="targetPoint" />
            <Array as="points">
              <mxPoint x="560" y="3180" />
            </Array>
          </mxGeometry>
        </mxCell>
        <mxCell id="Vui1hRb9voWoBhlo4_W3-175" value="" style="endArrow=none;dashed=1;html=1;rounded=0;startArrow=open;startFill=0;entryX=1;entryY=0.5;entryDx=0;entryDy=0;exitX=0.327;exitY=0.997;exitDx=0;exitDy=0;exitPerimeter=0;" edge="1" parent="1" source="Vui1hRb9voWoBhlo4_W3-137" target="Vui1hRb9voWoBhlo4_W3-136">
          <mxGeometry width="50" height="50" relative="1" as="geometry">
            <mxPoint x="608" y="3312" as="sourcePoint" />
            <mxPoint x="565" y="3380" as="targetPoint" />
            <Array as="points">
              <mxPoint x="590" y="3310" />
            </Array>
          </mxGeometry>
        </mxCell>
        <mxCell id="Vui1hRb9voWoBhlo4_W3-176" value="&lt;font style=&quot;font-size: 10px;&quot;&gt;&amp;lt;&amp;lt;include&amp;gt;&amp;gt;&lt;/font&gt;" style="text;html=1;align=center;verticalAlign=middle;whiteSpace=wrap;rounded=0;" vertex="1" parent="1">
          <mxGeometry x="570" y="3170" width="60" height="30" as="geometry" />
        </mxCell>
        <mxCell id="Vui1hRb9voWoBhlo4_W3-177" value="&lt;font style=&quot;font-size: 10px;&quot;&gt;&amp;lt;&amp;lt;include&amp;gt;&amp;gt;&lt;/font&gt;" style="text;html=1;align=center;verticalAlign=middle;whiteSpace=wrap;rounded=0;" vertex="1" parent="1">
          <mxGeometry x="590" y="3290" width="60" height="30" as="geometry" />
        </mxCell>
        <mxCell id="Vui1hRb9voWoBhlo4_W3-178" value="" style="endArrow=none;dashed=1;html=1;rounded=0;startArrow=open;startFill=0;entryX=0.943;entryY=0.33;entryDx=0;entryDy=0;exitX=0;exitY=0;exitDx=0;exitDy=0;entryPerimeter=0;" edge="1" parent="1" source="Vui1hRb9voWoBhlo4_W3-141" target="Vui1hRb9voWoBhlo4_W3-138">
          <mxGeometry width="50" height="50" relative="1" as="geometry">
            <mxPoint x="750" y="3270" as="sourcePoint" />
            <mxPoint x="721" y="3367" as="targetPoint" />
          </mxGeometry>
        </mxCell>
        <mxCell id="Vui1hRb9voWoBhlo4_W3-179" value="" style="endArrow=none;dashed=1;html=1;rounded=0;startArrow=open;startFill=0;exitX=0;exitY=0;exitDx=0;exitDy=0;" edge="1" parent="1" source="Vui1hRb9voWoBhlo4_W3-142" target="Vui1hRb9voWoBhlo4_W3-139">
          <mxGeometry width="50" height="50" relative="1" as="geometry">
            <mxPoint x="721" y="3477" as="sourcePoint" />
            <mxPoint x="522" y="3407" as="targetPoint" />
          </mxGeometry>
        </mxCell>
        <mxCell id="Vui1hRb9voWoBhlo4_W3-180" value="&lt;font style=&quot;font-size: 10px;&quot;&gt;&amp;lt;&amp;lt;include&amp;gt;&amp;gt;&lt;/font&gt;" style="text;html=1;align=center;verticalAlign=middle;whiteSpace=wrap;rounded=0;" vertex="1" parent="1">
          <mxGeometry x="580" y="3400" width="60" height="30" as="geometry" />
        </mxCell>
        <mxCell id="Vui1hRb9voWoBhlo4_W3-181" value="&lt;font style=&quot;font-size: 10px;&quot;&gt;&amp;lt;&amp;lt;include&amp;gt;&amp;gt;&lt;/font&gt;" style="text;html=1;align=center;verticalAlign=middle;whiteSpace=wrap;rounded=0;" vertex="1" parent="1">
          <mxGeometry x="570" y="3520" width="60" height="30" as="geometry" />
        </mxCell>
        <mxCell id="Vui1hRb9voWoBhlo4_W3-182" value="" style="endArrow=none;dashed=1;html=1;rounded=0;startArrow=open;startFill=0;entryX=0.26;entryY=0.947;entryDx=0;entryDy=0;exitX=0.811;exitY=0.13;exitDx=0;exitDy=0;entryPerimeter=0;exitPerimeter=0;" edge="1" parent="1" source="Vui1hRb9voWoBhlo4_W3-143" target="Vui1hRb9voWoBhlo4_W3-141">
          <mxGeometry width="50" height="50" relative="1" as="geometry">
            <mxPoint x="721" y="3477" as="sourcePoint" />
            <mxPoint x="522" y="3407" as="targetPoint" />
          </mxGeometry>
        </mxCell>
        <mxCell id="Vui1hRb9voWoBhlo4_W3-183" value="&lt;font style=&quot;font-size: 10px;&quot;&gt;&amp;lt;&amp;lt;include&amp;gt;&amp;gt;&lt;/font&gt;" style="text;html=1;align=center;verticalAlign=middle;whiteSpace=wrap;rounded=0;" vertex="1" parent="1">
          <mxGeometry x="555" y="3620" width="60" height="30" as="geometry" />
        </mxCell>
        <mxCell id="Vui1hRb9voWoBhlo4_W3-186" value="" style="endArrow=none;dashed=1;html=1;rounded=0;startArrow=open;startFill=0;entryX=0.5;entryY=1;entryDx=0;entryDy=0;exitX=0.761;exitY=0.098;exitDx=0;exitDy=0;exitPerimeter=0;" edge="1" parent="1" source="Vui1hRb9voWoBhlo4_W3-141" target="Vui1hRb9voWoBhlo4_W3-134">
          <mxGeometry width="50" height="50" relative="1" as="geometry">
            <mxPoint x="754" y="3237" as="sourcePoint" />
            <mxPoint x="830" y="3123" as="targetPoint" />
            <Array as="points">
              <mxPoint x="870" y="3300" />
            </Array>
          </mxGeometry>
        </mxCell>
        <mxCell id="Vui1hRb9voWoBhlo4_W3-187" value="" style="endArrow=none;dashed=1;html=1;rounded=0;startArrow=open;startFill=0;entryX=0.747;entryY=0.932;entryDx=0;entryDy=0;exitX=0.831;exitY=0.181;exitDx=0;exitDy=0;exitPerimeter=0;entryPerimeter=0;" edge="1" parent="1" source="Vui1hRb9voWoBhlo4_W3-142" target="Vui1hRb9voWoBhlo4_W3-134">
          <mxGeometry width="50" height="50" relative="1" as="geometry">
            <mxPoint x="850" y="3475" as="sourcePoint" />
            <mxPoint x="880" y="3130" as="targetPoint" />
            <Array as="points">
              <mxPoint x="950" y="3370" />
            </Array>
          </mxGeometry>
        </mxCell>
        <mxCell id="Vui1hRb9voWoBhlo4_W3-188" value="&lt;font style=&quot;font-size: 10px;&quot;&gt;&amp;lt;&amp;lt;extend&amp;gt;&amp;gt;&lt;/font&gt;" style="text;html=1;align=center;verticalAlign=middle;whiteSpace=wrap;rounded=0;" vertex="1" parent="1">
          <mxGeometry x="810" y="3260" width="60" height="30" as="geometry" />
        </mxCell>
        <mxCell id="Vui1hRb9voWoBhlo4_W3-189" value="&lt;font style=&quot;font-size: 10px;&quot;&gt;&amp;lt;&amp;lt;extend&amp;gt;&amp;gt;&lt;/font&gt;" style="text;html=1;align=center;verticalAlign=middle;whiteSpace=wrap;rounded=0;" vertex="1" parent="1">
          <mxGeometry x="840" y="3550" width="60" height="30" as="geometry" />
        </mxCell>
      </root>
    </mxGraphModel>
  </diagram>
</mxfile>
